<mxfile host="app.diagrams.net" modified="2023-08-05T14:54:57.380Z" agent="Mozilla/5.0 (Windows NT 10.0; Win64; x64) AppleWebKit/537.36 (KHTML, like Gecko) Chrome/115.0.0.0 Safari/537.36" version="21.6.6" etag="jlBxEqv5ObtaMMJ7LB9g" type="github">
  <diagram name="Strona-1" id="Cubu7HJ0IMN9YPmsdzr2">
    <mxGraphModel>
      <root>
        <mxCell id="0" />
        <mxCell id="1" parent="0" />
      </root>
    </mxGraphModel>
  </diagram>
</mxfile>
